<svg width="512" height="512" viewBox="0 0 512 512" fill="none" xmlns="http://www.w3.org/2000/svg">
<g clip-path="url(#clip0_285_43)">
<rect x="10" y="10" width="492" height="492" rx="246" fill="#16293A" stroke="#FFAD1F" stroke-width="20"/>
<g clip-path="url(#clip1_285_43)">
<path d="M251.729 124.885V219.02C251.618 219.13 251.397 219.351 251.286 219.571L243.963 229.161C243.852 229.271 243.631 229.382 243.631 229.492L234.533 219.902C231.538 217.587 227.433 217.587 224.215 220.012L214.896 228.059C211.124 224.642 207.019 221.445 202.249 218.8C200.362 217.697 198.144 218.249 197.034 220.122C195.925 221.996 196.59 224.311 198.365 225.413C249.289 255.175 237.972 341.594 237.861 342.365C237.861 342.586 237.751 342.806 237.751 342.916H212.455V325.721C212.455 311.391 205.799 297.503 193.928 289.566C164.971 269.725 146 236.767 146 199.289C146 153.545 174.402 114.303 214.674 98.1C233.646 90.4942 251.729 104.603 251.729 124.885Z" fill="#FFAD1F"/>
<path d="M249.732 234.006L251.618 231.581V342.801H245.295C246.182 335.526 253.393 270.822 219.999 233.455L229.097 225.628L238.305 235.328C241.855 237.864 246.626 237.533 249.732 234.006Z" fill="url(#paint0_linear_285_43)"/>
<path d="M359.678 224.306C366.334 220.227 368.331 208.764 366.223 200.607C364.115 191.788 358.679 185.836 350.913 183.411C355.795 179.002 358.79 172.939 358.79 166.216C358.79 153.209 347.363 142.627 332.94 141.855C334.271 138.548 335.159 135.021 335.159 131.273C335.159 118.817 322.844 102.394 304.539 97.7639C292.002 94.5673 280.686 96.2207 272.698 102.394C265.486 107.905 261.603 116.503 261.603 127.085V343.793H303.096V323.291C303.096 315.905 303.984 311.496 306.646 305.764C307.756 302.568 308.422 298.379 308.2 294.19C309.531 294.521 310.751 294.741 312.083 294.741H312.527C316.631 294.631 320.847 292.647 323.954 289.23C327.504 285.482 330.832 278.428 329.834 271.924C329.723 271.594 329.612 271.263 329.501 271.042H330.499C338.487 271.042 345.477 268.728 349.915 264.539C353.576 261.012 354.796 256.933 355.018 254.288C355.906 253.737 356.904 253.186 357.681 252.524C361.675 248.887 363.783 243.155 363.672 236.762C363.45 232.242 362.007 227.943 359.678 224.306C359.567 224.306 359.678 224.306 359.678 224.306ZM355.684 217.802C353.576 219.015 350.358 216.7 348.583 215.157C347.03 213.834 344.589 213.944 343.258 215.487C341.927 217.141 342.038 219.456 343.591 220.889C346.032 223.093 348.25 224.306 350.247 224.967C353.687 227.833 355.795 232.242 355.906 236.982C356.016 241.06 354.685 244.698 352.355 246.792C349.471 249.438 342.148 248.776 336.268 243.485C334.715 242.163 333.162 240.179 331.609 237.974C327.504 232.352 325.507 223.424 328.724 219.676C330.056 218.133 329.834 215.598 328.281 214.275C326.616 212.952 324.176 213.173 322.955 214.716C320.514 217.582 319.516 221.219 319.516 224.967C313.303 220.338 305.093 218.133 293.444 222.763C291.447 223.644 290.56 225.849 291.336 227.723C292.113 229.707 294.443 230.589 296.329 229.817C311.195 223.865 317.63 232.463 324.619 241.391C324.952 241.722 325.174 242.163 325.507 242.493C325.618 242.604 325.618 242.714 325.729 242.824C325.729 242.934 325.84 242.934 325.84 242.934C327.615 245.139 329.39 247.343 331.276 249.107C335.825 253.296 341.483 255.5 346.697 255.831C346.253 256.933 345.699 257.925 344.589 259.028C340.928 262.445 333.939 264.098 326.394 263.106C319.294 262.224 310.529 255.17 309.531 249.548C309.198 247.454 307.201 246.131 305.093 246.462C302.985 246.792 301.543 248.776 301.987 250.871C302.209 251.973 302.542 252.965 302.985 253.957C296.994 253.406 290.338 254.178 285.234 257.484C283.348 258.587 282.794 261.012 284.014 262.775C285.123 264.539 287.564 265.09 289.339 263.878C296.772 259.138 308.976 262.334 310.53 263.657C310.751 263.767 310.973 263.988 311.084 264.098C311.417 264.429 311.861 264.759 312.305 264.98C314.413 266.633 316.742 267.846 319.183 268.838C319.294 268.838 319.294 268.948 319.294 268.948C320.958 269.83 321.957 271.263 322.29 273.027C322.844 276.885 320.736 281.514 318.407 283.939C317.519 284.821 315.3 286.915 312.305 287.026C310.197 287.136 308.089 286.144 305.87 284.16C305.87 284.16 305.759 284.16 305.759 284.049C305.315 283.278 304.982 282.506 304.539 281.845C302.209 278.428 298.88 276.664 294.886 276.554C292.778 276.664 291.003 278.207 291.003 280.302C291.003 282.396 292.668 284.16 294.886 284.16C295.774 284.16 296.994 284.38 298.215 286.144C300.877 289.891 301.321 297.718 299.546 302.788C296.107 310.063 295.441 316.126 295.441 323.18V335.967H269.369V182.529C273.696 191.348 280.464 199.725 291.669 203.473C292.113 203.583 292.557 203.693 292.889 203.693C294.554 203.693 295.996 202.701 296.551 201.048C297.105 199.064 296.107 196.859 294.11 196.198C277.024 190.466 272.476 170.625 269.813 158.83L269.48 157.508C269.48 157.397 269.369 157.287 269.369 157.177V127.085C269.369 118.928 272.254 112.534 277.468 108.346C283.57 103.716 292.778 102.504 302.763 105.039C318.739 109.117 327.615 123.006 327.615 131.163C327.615 142.296 318.074 151.445 306.314 151.445C305.648 151.445 304.982 151.445 304.317 151.335C302.209 151.114 300.323 152.658 300.212 154.862C299.99 156.956 301.543 158.72 303.651 158.941C304.539 159.051 305.426 159.051 306.314 159.051C314.967 159.051 322.622 155.413 327.948 149.571C329.057 149.461 330.167 149.24 331.276 149.24C342.37 149.24 351.246 156.846 351.246 166.105C351.246 175.475 342.37 183.08 331.276 183.08C325.063 183.08 319.294 180.655 315.411 176.467C314.08 174.813 311.528 174.703 309.975 176.136C308.422 177.459 308.311 179.994 309.753 181.427C313.858 186.057 319.516 188.923 325.729 190.135C323.954 193.111 322.955 196.749 322.955 201.158C322.955 203.252 324.619 205.016 326.838 205.016C329.057 205.016 330.721 203.362 330.721 201.158C330.721 193.221 334.493 189.694 342.814 189.694C351.246 189.694 356.904 193.993 358.901 202.26C360.232 208.323 358.679 215.928 355.684 217.802Z" fill="#EEF7FF"/>
<path d="M307.312 362.862V366.72H205.688V362.862C205.688 357.571 210.347 353.272 216.116 353.272H296.773C302.542 353.272 307.312 357.571 307.312 362.862Z" fill="#EEF7FF"/>
<path d="M205.688 374.767H307.201V378.625C307.201 383.916 302.542 388.215 296.773 388.215H216.116C210.347 388.215 205.688 383.916 205.688 378.625V374.767Z" fill="#EEF7FF"/>
<path d="M272.476 415H238.638C228.32 415 219.889 406.623 219.889 396.372H291.225C291.225 406.623 282.905 415 272.476 415Z" fill="#EEF7FF"/>
</g>
</g>
<defs>
<linearGradient id="paint0_linear_285_43" x1="182.833" y1="161.509" x2="242.843" y2="286.586" gradientUnits="userSpaceOnUse">
<stop stop-color="#FFD300"/>
<stop offset="1" stop-color="#FFA400"/>
</linearGradient>
<clipPath id="clip0_285_43">
<rect width="512" height="512" fill="white"/>
</clipPath>
<clipPath id="clip1_285_43">
<rect width="221" height="319" fill="white" transform="translate(146 96)"/>
</clipPath>
</defs>
</svg>
